<svg width="50" height="50" viewBox="0 0 50 50" fill="none" xmlns="http://www.w3.org/2000/svg">
<path d="M49.3 24.5934C49.3 37.6684 38.6194 48.2675 25.4417 48.2675C21.4106 48.274 17.4432 47.2607 13.909 45.3218L0.700012 49.5192L5.00651 36.8174C2.76197 33.1355 1.57727 28.9055 1.58291 24.5934C1.58291 11.5184 12.2647 0.91925 25.4423 0.91925C38.6204 0.91925 49.3 11.5184 49.3 24.5934ZM25.4417 4.68953C14.3804 4.68953 5.38289 13.6184 5.38289 24.5934C5.38289 28.949 6.80255 32.9823 9.20393 36.2633L6.69779 43.6548L14.4063 41.2049C17.6837 43.3582 21.5208 44.5029 25.4423 44.4972C36.502 44.4972 45.5011 35.5694 45.5011 24.5939C45.5006 13.619 36.5025 4.68953 25.4417 4.68953ZM37.4897 30.0458C37.3422 29.8044 36.9529 29.6586 36.3686 29.3686C35.7833 29.0786 32.9072 27.6741 32.3726 27.4818C31.8364 27.288 31.4454 27.1908 31.0561 27.7713C30.6668 28.3523 29.5457 29.6586 29.2039 30.0458C28.8626 30.434 28.5219 30.4826 27.9365 30.1921C27.3523 29.9021 25.4682 29.2887 23.2342 27.3117C21.496 25.7744 20.322 23.8752 19.9807 23.2941C19.64 22.7136 19.9451 22.3999 20.2372 22.111C20.5007 21.8507 20.8226 21.4333 21.1147 21.0947C21.4079 20.7556 21.5051 20.5142 21.699 20.1265C21.895 19.7393 21.7973 19.4007 21.6504 19.1097C21.5046 18.8197 20.3339 15.9642 19.8468 14.8026C19.3597 13.6411 18.8732 13.8344 18.5314 13.8344C18.1906 13.8344 17.8002 13.7858 17.4103 13.7858C17.0204 13.7858 16.3865 13.9311 15.8503 14.5116C15.3146 15.0926 13.8042 16.4966 13.8042 19.3516C13.8042 22.2071 15.8989 24.966 16.1921 25.3532C16.4842 25.7398 20.2367 31.79 26.1821 34.1136C32.128 36.4356 32.128 35.6607 33.2004 35.5635C34.2718 35.4668 36.6597 34.16 37.1489 32.8057C37.6349 31.4492 37.6349 30.2877 37.4897 30.0458Z" fill="white"/>
</svg>
