<?xml version="1.0" encoding="UTF-8"?>
<svg xmlns="http://www.w3.org/2000/svg" xmlns:xlink="http://www.w3.org/1999/xlink" width="450px" height="312px" viewBox="0 0 450 312" version="1.1">
<g id="surface1">
<path style=" stroke:none;fill-rule:nonzero;fill:rgb(92.941176%,94.901961%,96.470588%);fill-opacity:1;" d="M 0 230.023438 L 450 230.023438 L 450 231.246094 L 0 231.246094 Z M 0 230.023438 "/>
<path style=" stroke:none;fill-rule:nonzero;fill:rgb(13.333333%,16.862745%,27.058824%);fill-opacity:1;" d="M 279.78125 296.289062 C 279.574219 294.628906 278.359375 293.085938 275.929688 293.085938 C 272.8125 293.085938 271.511719 295.449219 271.511719 299.355469 C 271.511719 303.328125 272.453125 305.882812 276.082031 305.882812 C 278.753906 305.882812 280.175781 304.082031 280.175781 301.71875 C 280.175781 299.117188 278.582031 297.609375 276.339844 297.609375 C 275.039062 297.609375 273.804688 298.15625 273.1875 299.183594 C 273.242188 295.914062 274.148438 294.714844 275.910156 294.714844 C 277.144531 294.714844 277.742188 295.277344 277.984375 296.289062 Z M 275.910156 299.253906 C 277.554688 299.253906 278.308594 300.316406 278.308594 301.804688 C 278.308594 303.277344 277.417969 304.253906 275.980469 304.253906 C 274.320312 304.253906 273.410156 303.226562 273.410156 301.6875 C 273.410156 300.023438 274.628906 299.253906 275.910156 299.253906 Z M 282.222656 296.476562 L 284.121094 296.476562 C 284.242188 295.605469 284.875 294.78125 286.242188 294.78125 C 287.578125 294.78125 288.28125 295.5 288.28125 296.582031 C 288.28125 297.917969 287.203125 298.429688 285.4375 298.449219 L 284.976562 298.449219 L 284.976562 300.058594 L 285.421875 300.058594 C 287.460938 300.058594 288.519531 300.625 288.519531 302.269531 C 288.519531 303.433594 287.800781 304.324219 286.347656 304.324219 C 284.875 304.324219 284.019531 303.433594 283.933594 302.269531 L 282.050781 302.269531 C 282.167969 304.71875 284 305.949219 286.363281 305.949219 C 288.964844 305.949219 290.371094 304.445312 290.371094 302.457031 C 290.371094 300.726562 289.53125 299.648438 288.230469 299.253906 L 288.230469 299.183594 C 289.207031 298.859375 290.148438 297.847656 290.148438 296.359375 C 290.148438 294.542969 288.792969 293.105469 286.3125 293.105469 C 284.035156 293.105469 282.359375 294.320312 282.222656 296.476562 Z M 292.933594 293.359375 L 292.933594 300.570312 L 294.78125 300.570312 C 295.109375 299.648438 295.878906 299.011719 297.027344 299.011719 C 298.652344 299.011719 299.457031 299.9375 299.457031 301.566406 C 299.457031 303.105469 298.703125 304.253906 297.027344 304.253906 C 295.707031 304.253906 294.816406 303.570312 294.558594 302.507812 L 292.660156 302.507812 C 292.953125 304.460938 294.441406 305.882812 297.007812 305.882812 C 299.902344 305.882812 301.324219 304 301.324219 301.515625 C 301.324219 299.628906 300.382812 297.351562 297.316406 297.351562 C 296.203125 297.351562 295.195312 297.867188 294.730469 298.484375 L 294.730469 295.074219 L 300.464844 295.074219 L 300.464844 293.359375 Z M 292.933594 293.359375 "/>
<path style=" stroke:none;fill-rule:nonzero;fill:rgb(58.823529%,64.705882%,72.156863%);fill-opacity:1;" d="M 280.613281 272.796875 C 280.613281 267.746094 273.257812 269.941406 273.257812 266.417969 C 273.257812 264.949219 274.410156 264.183594 275.878906 264.222656 C 277.542969 264.242188 278.402344 265.28125 278.519531 266.199219 L 280.476562 266.199219 C 280.261719 264.125 278.558594 262.695312 275.957031 262.695312 C 273.257812 262.695312 271.4375 264.222656 271.4375 266.476562 C 271.4375 271.546875 278.8125 269.195312 278.8125 272.875 C 278.8125 274.167969 277.796875 275.148438 276.074219 275.148438 C 274.175781 275.148438 273.375 274.011719 273.257812 272.875 L 271.359375 272.875 C 271.398438 275.128906 273.335938 276.65625 276.074219 276.65625 C 279.03125 276.65625 280.613281 274.734375 280.613281 272.796875 Z M 287.792969 267.121094 C 289.632812 267.121094 291.199219 268.277344 291.179688 270.371094 L 284.410156 270.371094 C 284.605469 268.277344 286.050781 267.121094 287.792969 267.121094 Z M 292.800781 273.210938 L 290.882812 273.210938 C 290.492188 274.363281 289.476562 275.1875 287.871094 275.1875 C 286.050781 275.1875 284.527344 273.992188 284.390625 271.820312 L 292.957031 271.820312 C 292.996094 271.449219 293.015625 271.132812 293.015625 270.742188 C 293.015625 267.804688 290.984375 265.613281 287.871094 265.613281 C 284.742188 265.613281 282.570312 267.746094 282.570312 271.132812 C 282.570312 274.539062 284.820312 276.695312 287.871094 276.695312 C 290.53125 276.695312 292.253906 275.167969 292.800781 273.210938 Z M 297.148438 270.683594 C 297.148438 268.199219 298.4375 267.433594 300.140625 267.433594 L 300.609375 267.433594 L 300.609375 265.59375 C 298.910156 265.59375 297.753906 266.335938 297.148438 267.53125 L 297.148438 265.789062 L 295.367188 265.789062 L 295.367188 276.519531 L 297.148438 276.519531 Z M 301.394531 265.789062 L 305.601562 276.519531 L 307.675781 276.519531 L 311.878906 265.789062 L 309.984375 265.789062 L 306.65625 274.875 L 303.3125 265.789062 Z M 313.632812 276.519531 L 315.414062 276.519531 L 315.414062 265.789062 L 313.632812 265.789062 Z M 314.550781 264.046875 C 315.199219 264.046875 315.726562 263.519531 315.726562 262.832031 C 315.726562 262.148438 315.199219 261.621094 314.550781 261.621094 C 313.867188 261.621094 313.339844 262.148438 313.339844 262.832031 C 313.339844 263.519531 313.867188 264.046875 314.550781 264.046875 Z M 317.78125 271.132812 C 317.78125 274.539062 319.953125 276.695312 323.007812 276.695312 C 325.667969 276.695312 327.410156 275.207031 327.957031 273.070312 L 326.039062 273.070312 C 325.648438 274.421875 324.59375 275.1875 323.007812 275.1875 C 321.050781 275.1875 319.601562 273.796875 319.601562 271.132812 C 319.601562 268.511719 321.050781 267.121094 323.007812 267.121094 C 324.59375 267.121094 325.667969 267.941406 326.039062 269.234375 L 327.957031 269.234375 C 327.410156 266.984375 325.667969 265.613281 323.007812 265.613281 C 319.953125 265.613281 317.78125 267.765625 317.78125 271.132812 Z M 334.890625 267.121094 C 336.730469 267.121094 338.292969 268.277344 338.273438 270.371094 L 331.503906 270.371094 C 331.703125 268.277344 333.148438 267.121094 334.890625 267.121094 Z M 339.898438 273.210938 L 337.980469 273.210938 C 337.589844 274.363281 336.574219 275.1875 334.96875 275.1875 C 333.148438 275.1875 331.625 273.992188 331.484375 271.820312 L 340.054688 271.820312 C 340.09375 271.449219 340.113281 271.132812 340.113281 270.742188 C 340.113281 267.804688 338.078125 265.613281 334.96875 265.613281 C 331.839844 265.613281 329.667969 267.746094 329.667969 271.132812 C 329.667969 274.539062 331.917969 276.695312 334.96875 276.695312 C 337.628906 276.695312 339.351562 275.167969 339.898438 273.210938 Z M 350.171875 273.601562 C 350.09375 269.765625 343.875 271.152344 343.875 268.609375 C 343.875 267.746094 344.65625 267.121094 345.96875 267.121094 C 347.394531 267.121094 348.21875 267.902344 348.296875 268.980469 L 350.074219 268.980469 C 349.957031 266.886719 348.394531 265.613281 346.027344 265.613281 C 343.636719 265.613281 342.09375 266.964844 342.09375 268.609375 C 342.09375 272.601562 348.433594 271.210938 348.433594 273.601562 C 348.433594 274.480469 347.648438 275.1875 346.242188 275.1875 C 344.734375 275.1875 343.816406 274.402344 343.71875 273.367188 L 341.878906 273.367188 C 341.996094 275.324219 343.757812 276.695312 346.261719 276.695312 C 348.628906 276.695312 350.171875 275.363281 350.171875 273.601562 Z M 350.171875 273.601562 "/>
<path style=" stroke:none;fill-rule:nonzero;fill:rgb(0%,87.843137%,58.823529%);fill-opacity:1;" d="M 251.902344 263.058594 C 255.277344 263.058594 258.015625 265.796875 258.015625 269.175781 C 258.015625 272.554688 255.277344 275.292969 251.902344 275.292969 C 248.527344 275.292969 245.789062 272.554688 245.789062 269.175781 C 245.789062 265.796875 248.527344 263.058594 251.902344 263.058594 Z M 251.902344 263.058594 "/>
<path style=" stroke:none;fill-rule:nonzero;fill:rgb(13.333333%,16.862745%,27.058824%);fill-opacity:1;" d="M 122.199219 305.882812 L 124.167969 305.882812 L 124.167969 293.394531 L 120.605469 293.394531 L 120.605469 295.175781 L 122.199219 295.175781 Z M 125.910156 308.261719 L 127.175781 308.261719 L 129.246094 303.535156 L 127.125 303.535156 Z M 132.03125 305.882812 L 134 305.882812 L 134 293.394531 L 130.4375 293.394531 L 130.4375 295.175781 L 132.03125 295.175781 Z M 136.644531 296.476562 L 138.546875 296.476562 C 138.667969 295.605469 139.300781 294.78125 140.667969 294.78125 C 142.003906 294.78125 142.707031 295.5 142.707031 296.582031 C 142.707031 297.917969 141.628906 298.429688 139.863281 298.449219 L 139.402344 298.449219 L 139.402344 300.058594 L 139.847656 300.058594 C 141.882812 300.058594 142.945312 300.625 142.945312 302.269531 C 142.945312 303.433594 142.226562 304.324219 140.773438 304.324219 C 139.300781 304.324219 138.445312 303.433594 138.359375 302.269531 L 136.476562 302.269531 C 136.59375 304.71875 138.425781 305.949219 140.789062 305.949219 C 143.390625 305.949219 144.792969 304.445312 144.792969 302.457031 C 144.792969 300.726562 143.957031 299.648438 142.65625 299.253906 L 142.65625 299.183594 C 143.628906 298.859375 144.574219 297.847656 144.574219 296.359375 C 144.574219 294.542969 143.21875 293.105469 140.738281 293.105469 C 138.460938 293.105469 136.78125 294.320312 136.644531 296.476562 Z M 147.359375 293.359375 L 147.359375 300.570312 L 149.207031 300.570312 C 149.53125 299.648438 150.300781 299.011719 151.449219 299.011719 C 153.074219 299.011719 153.878906 299.9375 153.878906 301.566406 C 153.878906 303.105469 153.128906 304.253906 151.449219 304.253906 C 150.132812 304.253906 149.242188 303.570312 148.984375 302.507812 L 147.082031 302.507812 C 147.375 304.460938 148.863281 305.882812 151.433594 305.882812 C 154.324219 305.882812 155.746094 304 155.746094 301.515625 C 155.746094 299.628906 154.804688 297.351562 151.742188 297.351562 C 150.628906 297.351562 149.617188 297.867188 149.15625 298.484375 L 149.15625 295.074219 L 154.890625 295.074219 L 154.890625 293.359375 Z M 147.359375 293.359375 "/>
<path style=" stroke:none;fill-rule:nonzero;fill:rgb(58.823529%,64.705882%,72.156863%);fill-opacity:1;" d="M 126.449219 274.636719 L 122.164062 262.871094 L 120.265625 262.871094 L 125.414062 276.519531 L 127.46875 276.519531 L 132.613281 262.871094 L 130.734375 262.871094 Z M 144.738281 271.132812 C 144.738281 267.746094 142.371094 265.613281 139.320312 265.613281 C 136.289062 265.613281 133.902344 267.746094 133.902344 271.132812 C 133.902344 274.539062 136.210938 276.695312 139.242188 276.695312 C 142.292969 276.695312 144.738281 274.539062 144.738281 271.132812 Z M 135.71875 271.132812 C 135.71875 268.433594 137.421875 267.160156 139.300781 267.160156 C 141.140625 267.160156 142.921875 268.433594 142.921875 271.132812 C 142.921875 273.855469 141.101562 275.128906 139.242188 275.128906 C 137.382812 275.128906 135.71875 273.855469 135.71875 271.132812 Z M 147.082031 276.519531 L 148.859375 276.519531 L 148.859375 262.03125 L 147.082031 262.03125 Z M 161.402344 265.789062 L 159.621094 265.789062 L 159.621094 271.683594 C 159.621094 273.992188 158.390625 275.128906 156.550781 275.128906 C 154.75 275.128906 153.558594 274.011719 153.558594 271.839844 L 153.558594 265.789062 L 151.796875 265.789062 L 151.796875 272.074219 C 151.796875 275.148438 153.734375 276.675781 156.199219 276.675781 C 157.628906 276.675781 158.9375 276.046875 159.621094 274.933594 L 159.621094 276.519531 L 161.402344 276.519531 Z M 179.886719 276.519531 L 181.648438 276.519531 L 181.648438 270.195312 C 181.648438 267.121094 179.75 265.59375 177.304688 265.59375 C 175.660156 265.59375 174.132812 266.4375 173.507812 267.980469 C 172.804688 266.378906 171.335938 265.59375 169.574219 265.59375 C 168.167969 265.59375 166.894531 266.199219 166.191406 267.335938 L 166.191406 265.789062 L 164.410156 265.789062 L 164.410156 276.519531 L 166.191406 276.519531 L 166.191406 270.605469 C 166.191406 268.296875 167.421875 267.140625 169.222656 267.140625 C 170.984375 267.140625 172.15625 268.257812 172.15625 270.449219 L 172.15625 276.519531 L 173.917969 276.519531 L 173.917969 270.605469 C 173.917969 268.296875 175.152344 267.140625 176.953125 267.140625 C 178.710938 267.140625 179.886719 268.257812 179.886719 270.449219 Z M 189.125 267.121094 C 190.964844 267.121094 192.53125 268.277344 192.511719 270.371094 L 185.742188 270.371094 C 185.9375 268.277344 187.382812 267.121094 189.125 267.121094 Z M 194.132812 273.210938 L 192.21875 273.210938 C 191.824219 274.363281 190.808594 275.1875 189.203125 275.1875 C 187.382812 275.1875 185.859375 273.992188 185.722656 271.820312 L 194.292969 271.820312 C 194.332031 271.449219 194.351562 271.132812 194.351562 270.742188 C 194.351562 267.804688 192.316406 265.613281 189.203125 265.613281 C 186.074219 265.613281 183.902344 267.746094 183.902344 271.132812 C 183.902344 274.539062 186.152344 276.695312 189.203125 276.695312 C 191.863281 276.695312 193.585938 275.167969 194.132812 273.210938 Z M 194.132812 273.210938 "/>
<path style=" stroke:none;fill-rule:nonzero;fill:rgb(0%,58.431373%,100%);fill-opacity:1;" d="M 101.496094 263.058594 C 104.871094 263.058594 107.609375 265.796875 107.609375 269.175781 C 107.609375 272.554688 104.871094 275.292969 101.496094 275.292969 C 98.117188 275.292969 95.378906 272.554688 95.378906 269.175781 C 95.378906 265.796875 98.117188 263.058594 101.496094 263.058594 Z M 101.496094 263.058594 "/>
<path style=" stroke:none;fill-rule:nonzero;fill:rgb(74.117647%,78.823529%,82.745098%);fill-opacity:1;" d="M 220.109375 258.164062 L 221.332031 258.164062 L 221.332031 287.53125 L 220.109375 287.53125 Z M 220.109375 258.164062 "/>
<path style=" stroke:none;fill-rule:nonzero;fill:rgb(0%,58.431373%,100%);fill-opacity:1;" d="M 57.472656 35.65625 L 67.253906 35.65625 C 68.605469 35.65625 69.699219 36.753906 69.699219 38.105469 L 69.699219 203.105469 C 69.699219 204.457031 68.605469 205.550781 67.253906 205.550781 L 57.472656 205.550781 C 56.121094 205.550781 55.027344 204.457031 55.027344 203.105469 L 55.027344 38.105469 C 55.027344 36.753906 56.121094 35.65625 57.472656 35.65625 Z M 57.472656 35.65625 "/>
<path style=" stroke:none;fill-rule:nonzero;fill:rgb(0%,87.843137%,58.823529%);fill-opacity:1;" d="M 57.472656 109.070312 L 67.253906 109.070312 C 68.605469 109.070312 69.699219 110.164062 69.699219 111.515625 L 69.699219 203.105469 C 69.699219 204.457031 68.605469 205.554688 67.253906 205.554688 L 57.472656 205.554688 C 56.121094 205.554688 55.027344 204.457031 55.027344 203.105469 L 55.027344 111.515625 C 55.027344 110.164062 56.121094 109.070312 57.472656 109.070312 Z M 57.472656 109.070312 "/>
<path style=" stroke:none;fill-rule:nonzero;fill:rgb(0%,58.431373%,100%);fill-opacity:1;" d="M 184.648438 35.65625 L 194.429688 35.65625 C 195.78125 35.65625 196.875 36.753906 196.875 38.105469 L 196.875 203.105469 C 196.875 204.457031 195.78125 205.550781 194.429688 205.550781 L 184.648438 205.550781 C 183.296875 205.550781 182.199219 204.457031 182.199219 203.105469 L 182.199219 38.105469 C 182.199219 36.753906 183.296875 35.65625 184.648438 35.65625 Z M 184.648438 35.65625 "/>
<path style=" stroke:none;fill-rule:nonzero;fill:rgb(0%,87.843137%,58.823529%);fill-opacity:1;" d="M 184.648438 161.507812 L 194.429688 161.507812 C 195.78125 161.507812 196.875 162.601562 196.875 163.953125 L 196.875 203.105469 C 196.875 204.457031 195.78125 205.554688 194.429688 205.554688 L 184.648438 205.554688 C 183.296875 205.554688 182.199219 204.457031 182.199219 203.105469 L 182.199219 163.953125 C 182.199219 162.601562 183.296875 161.507812 184.648438 161.507812 Z M 184.648438 161.507812 "/>
<path style=" stroke:none;fill-rule:nonzero;fill:rgb(0%,58.431373%,100%);fill-opacity:1;" d="M 311.820312 88.09375 L 321.601562 88.09375 C 322.953125 88.09375 324.050781 89.191406 324.050781 90.542969 L 324.050781 203.105469 C 324.050781 204.457031 322.953125 205.554688 321.601562 205.554688 L 311.820312 205.554688 C 310.46875 205.554688 309.375 204.457031 309.375 203.105469 L 309.375 90.542969 C 309.375 89.191406 310.46875 88.09375 311.820312 88.09375 Z M 311.820312 88.09375 "/>
<path style=" stroke:none;fill-rule:nonzero;fill:rgb(0%,87.843137%,58.823529%);fill-opacity:1;" d="M 311.820312 161.507812 L 321.601562 161.507812 C 322.953125 161.507812 324.050781 162.601562 324.050781 163.953125 L 324.050781 203.105469 C 324.050781 204.457031 322.953125 205.554688 321.601562 205.554688 L 311.820312 205.554688 C 310.46875 205.554688 309.375 204.457031 309.375 203.105469 L 309.375 163.953125 C 309.375 162.601562 310.46875 161.507812 311.820312 161.507812 Z M 311.820312 161.507812 "/>
<path style=" stroke:none;fill-rule:nonzero;fill:rgb(0%,58.431373%,100%);fill-opacity:1;" d="M 375.40625 77.605469 L 385.191406 77.605469 C 386.539062 77.605469 387.636719 78.703125 387.636719 80.054688 L 387.636719 203.105469 C 387.636719 204.457031 386.539062 205.550781 385.191406 205.550781 L 375.40625 205.550781 C 374.058594 205.550781 372.960938 204.457031 372.960938 203.105469 L 372.960938 80.054688 C 372.960938 78.703125 374.058594 77.605469 375.40625 77.605469 Z M 375.40625 77.605469 "/>
<path style=" stroke:none;fill-rule:nonzero;fill:rgb(0%,87.843137%,58.823529%);fill-opacity:1;" d="M 375.40625 130.042969 L 385.191406 130.042969 C 386.539062 130.042969 387.636719 131.140625 387.636719 132.492188 L 387.636719 203.105469 C 387.636719 204.457031 386.539062 205.554688 385.191406 205.554688 L 375.40625 205.554688 C 374.058594 205.554688 372.960938 204.457031 372.960938 203.105469 L 372.960938 132.492188 C 372.960938 131.140625 374.058594 130.042969 375.40625 130.042969 Z M 375.40625 130.042969 "/>
<path style=" stroke:none;fill-rule:nonzero;fill:rgb(0%,58.431373%,100%);fill-opacity:1;" d="M 248.234375 52.4375 L 258.015625 52.4375 C 259.367188 52.4375 260.460938 53.53125 260.460938 54.882812 L 260.460938 203.105469 C 260.460938 204.457031 259.367188 205.554688 258.015625 205.554688 L 248.234375 205.554688 C 246.882812 205.554688 245.789062 204.457031 245.789062 203.105469 L 245.789062 54.882812 C 245.789062 53.53125 246.882812 52.4375 248.234375 52.4375 Z M 248.234375 52.4375 "/>
<path style=" stroke:none;fill-rule:nonzero;fill:rgb(0%,87.843137%,58.823529%);fill-opacity:1;" d="M 248.234375 155.214844 L 258.015625 155.214844 C 259.367188 155.214844 260.460938 156.308594 260.460938 157.660156 L 260.460938 203.105469 C 260.460938 204.457031 259.367188 205.554688 258.015625 205.554688 L 248.234375 205.554688 C 246.882812 205.554688 245.789062 204.457031 245.789062 203.105469 L 245.789062 157.660156 C 245.789062 156.308594 246.882812 155.214844 248.234375 155.214844 Z M 248.234375 155.214844 "/>
<path style=" stroke:none;fill-rule:nonzero;fill:rgb(0%,58.431373%,100%);fill-opacity:1;" d="M 121.058594 0 L 130.84375 0 C 132.191406 0 133.289062 1.09375 133.289062 2.445312 L 133.289062 203.105469 C 133.289062 204.457031 132.191406 205.554688 130.84375 205.554688 L 121.058594 205.554688 C 119.710938 205.554688 118.613281 204.457031 118.613281 203.105469 L 118.613281 2.445312 C 118.613281 1.09375 119.710938 0 121.058594 0 Z M 121.058594 0 "/>
<path style=" stroke:none;fill-rule:nonzero;fill:rgb(0%,87.843137%,58.823529%);fill-opacity:1;" d="M 121.058594 96.484375 L 130.84375 96.484375 C 132.191406 96.484375 133.289062 97.578125 133.289062 98.929688 L 133.289062 203.105469 C 133.289062 204.457031 132.191406 205.554688 130.84375 205.554688 L 121.058594 205.554688 C 119.710938 205.554688 118.613281 204.457031 118.613281 203.105469 L 118.613281 98.929688 C 118.613281 97.578125 119.710938 96.484375 121.058594 96.484375 Z M 121.058594 96.484375 "/>
</g>
</svg>
