<svg width="300" height="81" viewBox="0 0 300 81" fill="none" xmlns="http://www.w3.org/2000/svg">
<path d="M36.9021 24.0545C37.0968 23.971 37.2636 23.8876 37.4305 23.8042L36.9021 24.0545Z" fill="#A37D64"/>
<path d="M28.2536 37.1524C28.198 37.2636 28.1702 37.3471 28.1424 37.4583C28.0868 37.5695 28.059 37.6808 28.0311 37.792C27.2803 39.9055 27.2525 41.6852 27.7253 43.1591C29.3938 48.2202 37.0412 50.1112 42.9366 50.7787C43.0478 50.8065 43.1869 50.8064 43.2981 50.8343C47.1079 51.2514 50.1112 51.1958 50.1112 51.1958C48.4983 51.9466 46.9689 52.5584 45.5228 53.0589C45.495 53.0589 45.4672 53.0868 45.4672 53.0868C41.8799 54.3382 38.8487 54.9221 36.2625 54.9221C35.8176 54.9499 35.3448 54.9777 34.8999 55.0056C29.4494 55.1724 24.2214 54.2547 19.6329 51.1123C14.0434 47.3026 12.4027 41.3237 15.2948 35.2336C16.5184 32.6474 18.2147 30.4783 20.2169 28.5595L20.2447 28.5317C20.2725 28.5317 20.2725 28.5039 20.3003 28.4761C20.3281 28.4483 20.356 28.4205 20.3838 28.3927C20.4116 28.3649 20.4394 28.3649 20.4394 28.337C20.7731 28.059 21.1068 27.7809 21.4961 27.4472C21.663 27.3081 21.802 27.1969 21.941 27.0578C22.0801 26.9466 22.1913 26.8354 22.3026 26.7519C22.525 26.5573 22.6919 26.4182 22.7753 26.3626C22.8031 26.3348 22.8309 26.3348 22.8309 26.307L22.8587 26.2792C23.0534 26.1123 23.2759 25.9177 23.4983 25.7508C23.6374 25.6396 23.7486 25.5284 23.832 25.4727C23.8598 25.4449 23.8877 25.4171 23.8877 25.4171C23.8877 25.4171 23.8877 25.4171 23.9155 25.3893C23.9711 25.3337 23.9989 25.3059 24.0545 25.2781C24.1101 25.2225 24.1379 25.2225 24.1657 25.1947C24.1935 25.1947 24.1935 25.1669 24.1935 25.1669L24.2214 25.139C29.7275 20.5228 37.2914 16.2125 44.9944 12.4861H45.0222C49.6107 10.2614 54.2269 8.25918 58.4816 6.53504C67.1579 3.00334 74.4438 0.723027 76.5851 0.0278104C76.3348 0.0278104 75.8899 0.0278104 75.6674 0.0278104C62.8754 1.69689e-06 50.0834 0 37.3192 0C36.8187 0 33.7875 1.69689e-06 33.6207 0.0278104C29.0879 0.556175 24.9722 2.11347 21.0234 4.1435C9.37152 10.0389 2.80868 19.6329 0.389321 32.2859C0.222469 33.0923 0 34.01 0 34.733V77.9477C4.58843 77.9477 8.0089 78.198 11.6796 77.7809C25.1669 76.2236 35.4839 70.495 39.238 68.1313C39.2937 68.1034 39.3493 68.0478 39.4049 68.02C39.4605 67.9922 39.4883 67.9644 39.5439 67.9366C39.6552 67.8532 39.7664 67.7975 39.8776 67.7141C40.1001 67.5473 40.3504 67.4082 40.5729 67.2414C40.6285 67.2136 40.6841 67.158 40.7119 67.158L40.7397 67.1301C40.7675 67.1301 40.7675 67.1023 40.7675 67.1023C52.1135 58.287 56.0067 52.3915 56.0345 48.4427C56.0901 44.2158 51.7241 42.2414 47.4416 41.2959C47.2747 41.2681 47.1357 41.2403 46.9688 41.2125C43.02 40.406 39.2937 40.4894 39.2937 40.4894C39.5161 40.2948 49.4994 38.8765 54.2547 39.5717C58.3426 40.1557 62.0133 41.6852 65.0723 44.2992C65.5729 44.7163 66.0456 45.1613 66.5183 45.6618C69.0211 48.2481 69.5773 51.307 68.0756 54.644C67.436 56.0901 66.5462 57.4249 65.5172 58.6485C64.9333 59.3437 64.3493 60.0111 63.7375 60.6229L63.7097 60.6507C63.6819 60.6785 63.6541 60.7063 63.6262 60.7342C60.1224 64.3493 55.9789 67.1301 51.4182 69.4105C45.7453 72.2191 39.8498 74.1379 33.7875 75.4727H33.7597C31.8131 75.9455 30.0056 76.3348 28.3927 76.6407C24.416 77.4194 20.8009 78.0312 20.8009 78.0312H45.4394C48.1646 77.8087 50.6952 77.1691 53.0033 76.6129C55.4227 76.0567 57.6196 75.3059 59.6218 74.4438C59.7052 74.416 59.8165 74.3604 59.9277 74.3326C74.4438 67.881 77.8921 54.5606 78.6985 48.554C78.9488 46.6352 78.9766 45.4394 78.9766 45.4116V1.19578C72.6363 2.00223 34.2047 24.7497 28.2536 37.1524ZM51.2514 34.2047C48.1924 34.2047 45.6897 31.7019 45.6897 28.6429C45.6897 25.5562 48.1924 23.0812 51.2514 23.0812C54.3381 23.0812 56.8131 25.584 56.8131 28.6429C56.8131 31.7297 54.3103 34.2047 51.2514 34.2047Z" fill="#F17C21"/>
<path d="M107.258 27.3081C107.258 28.6151 106.98 29.8665 106.396 31.0623C105.84 32.258 105.033 33.287 104.004 34.1768C102.976 35.0945 101.78 35.8175 100.362 36.3459C98.9711 36.8743 97.4138 37.1524 95.7175 37.1524C94.188 37.1524 92.8254 37.0689 91.6296 36.9021C90.406 36.7352 89.2658 36.4571 88.2091 36.0678C87.1524 35.6785 86.1235 35.2058 85.1502 34.594C84.1769 33.9822 83.1479 33.2592 82.119 32.4249L86.9299 27.5584C88.3204 28.7263 89.7108 29.5606 91.0456 30.0333C92.3804 30.5061 93.8543 30.7564 95.4116 30.7564C96.0512 30.7564 96.663 30.6729 97.2191 30.4783C97.7753 30.2836 98.2759 30.0333 98.7208 29.6996C99.1379 29.3659 99.4716 29.0044 99.7219 28.5595C99.9722 28.1145 100.083 27.6418 100.083 27.1134C100.083 26.5573 99.9722 26.0567 99.7775 25.6118C99.5829 25.1668 99.2214 24.7497 98.693 24.3326C98.1646 23.9154 97.4416 23.4983 96.4961 23.0812C95.5506 22.664 94.3548 22.1913 92.9088 21.6629C91.6296 21.1902 90.3782 20.6618 89.2102 20.05C88.0145 19.4382 86.9855 18.7152 86.0957 17.881C85.2058 17.0467 84.4828 16.0456 83.9544 14.9054C83.426 13.7653 83.1479 12.4305 83.1479 10.8732C83.1479 9.3715 83.4538 8.00888 84.0378 6.75749C84.6496 5.5061 85.4561 4.42156 86.485 3.53168C87.5139 2.6418 88.7375 1.94658 90.1279 1.44603C91.5184 0.945472 93.02 0.69519 94.6051 0.69519C97.3026 0.69519 99.5551 1.05671 101.39 1.75193C103.226 2.44714 104.867 3.47606 106.285 4.81088L101.557 9.59397C100.667 8.75971 99.6941 8.0923 98.6096 7.64736C97.525 7.20242 96.2458 6.97995 94.7998 6.97995C94.1324 6.97995 93.4928 7.09119 92.9366 7.28585C92.3804 7.48051 91.8799 7.75859 91.4627 8.0923C91.0456 8.426 90.7119 8.81533 90.4894 9.28808C90.2392 9.73302 90.1279 10.2058 90.1279 10.7063C90.1279 11.2625 90.2392 11.763 90.4894 12.208C90.7119 12.6529 91.129 13.0979 91.6852 13.515C92.2414 13.9321 92.9922 14.3493 93.9099 14.7942C94.8276 15.2113 95.9677 15.6841 97.3582 16.1846C99.1101 16.7964 100.612 17.4638 101.863 18.2147C103.115 18.9377 104.143 19.7441 104.922 20.634C105.701 21.5239 106.285 22.4972 106.674 23.5817C107.063 24.6941 107.258 25.9177 107.258 27.3081Z" fill="#255FAA"/>
<path d="M134.093 36.485H127.781V21.3292C127.781 20.4115 127.642 19.6329 127.364 18.9377C127.086 18.2425 126.724 17.6863 126.279 17.2414C125.834 16.7964 125.306 16.4627 124.694 16.2402C124.082 16.0178 123.471 15.9065 122.831 15.9065C121.858 15.9065 120.94 16.0456 120.05 16.3515C119.16 16.6574 118.326 17.0467 117.492 17.5751V36.485H111.179V0.194641H117.492L117.547 12.6251C118.493 11.9021 119.577 11.3459 120.773 11.0122C121.997 10.6507 123.192 10.4839 124.305 10.4839C125.612 10.4839 126.863 10.7063 128.031 11.1234C129.199 11.5406 130.228 12.1802 131.146 13.0423C132.063 13.9043 132.759 14.9889 133.287 16.2681C133.815 17.5751 134.066 19.1045 134.066 20.8843L134.093 36.485Z" fill="#255FAA"/>
<path d="M159.455 36.485H153.142V35.1224C152.03 35.8732 150.862 36.4016 149.611 36.7075C148.359 37.0134 147.08 37.1524 145.773 37.1524C144.549 37.1524 143.437 36.9578 142.436 36.5962C141.435 36.2347 140.573 35.7064 139.85 35.0111C139.127 34.3159 138.543 33.5095 138.154 32.564C137.764 31.6185 137.57 30.5896 137.57 29.4494C137.57 28.0034 137.875 26.7798 138.515 25.6952C139.155 24.6385 139.989 23.7486 141.073 23.0256C142.158 22.3026 143.409 21.7742 144.855 21.4127C146.301 21.0512 147.859 20.8843 149.527 20.8843H153.17C153.17 19.3827 152.697 18.2147 151.724 17.3526C150.751 16.4628 149.36 16.0456 147.553 16.0456C146.663 16.0456 145.773 16.2125 144.855 16.5184C143.91 16.8521 142.992 17.4361 142.047 18.2703L138.32 14.5161C139.655 13.2369 141.212 12.2358 142.992 11.5406C144.772 10.8454 146.58 10.4839 148.443 10.4839C150.195 10.4839 151.752 10.762 153.115 11.3181C154.477 11.8743 155.59 12.5973 156.424 13.4594C157.536 14.5718 158.315 15.8232 158.76 17.1858C159.205 18.5484 159.427 20.3003 159.427 22.4416V36.485H159.455ZM153.142 30.2002V25.5006H150.25C149.36 25.5006 148.554 25.5562 147.775 25.6674C146.997 25.7787 146.329 25.9733 145.745 26.2514C145.189 26.5295 144.716 26.891 144.383 27.3359C144.049 27.7809 143.882 28.3092 143.882 28.921C143.882 29.8109 144.216 30.5061 144.911 31.0623C145.606 31.6185 146.468 31.8966 147.553 31.8966C148.498 31.8966 149.416 31.7575 150.334 31.4516C151.279 31.1735 152.225 30.7564 153.142 30.2002Z" fill="#255FAA"/>
<path d="M164.321 36.485V0.250305H170.773V36.485H164.321Z" fill="#255FAA"/>
<path d="M181.34 8.8988C178.921 8.8988 176.947 6.92439 176.947 4.50503C176.947 2.08568 178.921 0.111267 181.34 0.111267C183.76 0.111267 185.734 2.08568 185.734 4.50503C185.734 6.92439 183.76 8.8988 181.34 8.8988Z" fill="#255FAA"/>
<path d="M184.538 11.1512H178.142V64.0433H184.538V11.1512Z" fill="#F17C21"/>
<path d="M213.571 16.1847H210.901C211.568 17.4917 211.902 18.8821 211.902 20.3838C211.902 21.5239 211.68 22.6363 211.263 23.693C210.845 24.7497 210.234 25.723 209.455 26.6129C208.676 27.5028 207.703 28.2258 206.591 28.8376C205.478 29.4494 204.199 29.8665 202.809 30.0612C201.835 30.2002 201.112 30.4227 200.64 30.7286C200.167 31.0345 199.917 31.3404 199.917 31.6463C199.917 31.9522 200.167 32.2303 200.64 32.5084C201.112 32.7586 201.835 32.9533 202.809 33.0367C206.062 33.3426 208.621 34.1491 210.4 35.4839C212.18 36.8187 213.098 38.5984 213.098 40.8231C213.098 41.9633 212.82 43.02 212.264 43.9655C211.707 44.9388 210.929 45.7453 209.9 46.4683C208.871 47.1913 207.62 47.7197 206.174 48.0812C204.727 48.4705 203.087 48.6374 201.279 48.6374C199.444 48.6374 197.803 48.4427 196.329 48.0812C194.855 47.6919 193.604 47.1635 192.547 46.4683C191.491 45.7731 190.712 44.9666 190.156 43.9933C189.6 43.02 189.321 41.9633 189.321 40.7953C189.321 39.0434 189.822 37.5695 190.823 36.4016C191.824 35.2058 193.465 34.3437 195.717 33.7597C195.022 33.5095 194.522 33.148 194.216 32.6752C193.91 32.2303 193.771 31.7575 193.799 31.2848C193.826 30.812 194.021 30.3671 194.383 29.95C194.744 29.5328 195.273 29.1991 195.94 28.9767C195.189 28.6151 194.438 28.1702 193.743 27.614C193.048 27.0579 192.436 26.4183 191.852 25.6952C191.296 24.9722 190.851 24.1379 190.517 23.2481C190.184 22.3304 190.044 21.3849 190.044 20.356C190.044 18.9933 190.35 17.7141 190.934 16.5184C191.518 15.3226 192.297 14.2659 193.298 13.376C194.299 12.4861 195.439 11.7909 196.774 11.2625C198.109 10.7342 199.472 10.4839 200.945 10.4839C202.392 10.4839 203.699 10.7064 204.922 11.1513H213.598V16.1847H213.571ZM206.785 40.8231C206.785 39.7942 206.285 39.0434 205.228 38.5984C204.199 38.1257 202.864 37.9032 201.251 37.9032C199.499 37.9032 198.137 38.1535 197.136 38.6541C196.135 39.1546 195.634 39.8777 195.634 40.851C195.634 41.8521 196.162 42.5751 197.191 43.0757C198.248 43.5762 199.583 43.8265 201.251 43.8265C202.948 43.8265 204.283 43.5762 205.284 43.1035C206.285 42.6307 206.785 41.8521 206.785 40.8231ZM205.59 20.3838C205.59 19.7442 205.478 19.1324 205.228 18.604C204.978 18.0478 204.644 17.5473 204.227 17.1302C203.81 16.713 203.309 16.3793 202.753 16.129C202.197 15.8788 201.585 15.7675 200.945 15.7675C200.306 15.7675 199.722 15.8788 199.166 16.129C198.61 16.3793 198.137 16.713 197.72 17.1302C197.303 17.5473 196.969 18.0478 196.719 18.604C196.468 19.1602 196.357 19.772 196.357 20.3838C196.357 21.0234 196.468 21.6352 196.719 22.1913C196.969 22.7475 197.303 23.2481 197.72 23.693C198.137 24.1101 198.637 24.4438 199.166 24.6941C199.722 24.9444 200.306 25.0556 200.945 25.0556C201.585 25.0556 202.169 24.9444 202.753 24.6941C203.309 24.4438 203.81 24.1101 204.227 23.693C204.644 23.2759 204.978 22.7753 205.228 22.1913C205.478 21.6352 205.59 21.0234 205.59 20.3838Z" fill="#255FAA"/>
<path d="M234.816 13.8209L231.452 19.1602C230.84 18.4928 230.145 17.9088 229.422 17.3804C228.671 16.8799 227.92 16.6018 227.169 16.6018C226.752 16.6018 226.307 16.6852 225.834 16.8799C225.362 17.0745 224.889 17.3804 224.472 17.8254C224.054 18.2703 223.693 18.8543 223.387 19.5495C223.081 20.2725 222.942 21.1624 222.942 22.1913V36.485H216.63V11.1791H222.942V13.8765C223.693 12.792 224.555 11.9577 225.473 11.3738C226.39 10.7898 227.419 10.4839 228.56 10.4839C229.672 10.4839 230.756 10.7898 231.813 11.3738C232.87 12.0134 233.871 12.8198 234.816 13.8209Z" fill="#255FAA"/>
<path d="M257.592 36.485H251.279V35.1224C250.167 35.8732 248.999 36.4016 247.748 36.7075C246.496 37.0134 245.217 37.1524 243.91 37.1524C242.686 37.1524 241.574 36.9578 240.573 36.5963C239.572 36.2347 238.71 35.7064 237.987 35.0112C237.264 34.3159 236.68 33.5095 236.29 32.564C235.901 31.6185 235.706 30.5896 235.706 29.4494C235.706 28.0034 236.012 26.7798 236.652 25.6953C237.291 24.6385 238.126 23.7486 239.21 23.0256C240.295 22.3026 241.546 21.7742 242.992 21.4127C244.438 21.0512 245.996 20.8844 247.664 20.8844H251.307C251.307 19.3827 250.834 18.2147 249.861 17.3527C248.888 16.4628 247.497 16.0456 245.69 16.0456C244.8 16.0456 243.91 16.2125 242.992 16.5184C242.047 16.8521 241.129 17.4361 240.184 18.2703L236.485 14.544C237.82 13.2648 239.377 12.2637 241.157 11.5684C242.937 10.8732 244.744 10.5117 246.607 10.5117C248.359 10.5117 249.917 10.7898 251.279 11.346C252.642 11.9022 253.754 12.6252 254.588 13.4872C255.701 14.5996 256.479 15.851 256.924 17.2136C257.369 18.5762 257.592 20.3282 257.592 22.4694V36.485ZM251.279 30.2003V25.5006H248.387C247.497 25.5006 246.691 25.5562 245.912 25.6674C245.134 25.7787 244.466 25.9733 243.882 26.2514C243.326 26.5295 242.853 26.891 242.519 27.336C242.186 27.7809 242.019 28.3093 242.019 28.9211C242.019 29.8109 242.353 30.5062 243.048 31.0623C243.743 31.6185 244.605 31.8966 245.69 31.8966C246.635 31.8966 247.553 31.7575 248.471 31.4516C249.416 31.1736 250.334 30.7564 251.279 30.2003Z" fill="#255FAA"/>
<path d="M299.917 36.485H293.604V21.3849C293.604 19.6051 293.159 18.2425 292.297 17.3248C291.435 16.4071 290.378 15.9344 289.127 15.9344C288.154 15.9344 287.236 16.1012 286.374 16.4071C285.512 16.713 284.677 17.2136 283.843 17.9088C284.093 18.9377 284.232 20.0779 284.232 21.3849V36.485H277.92V21.3849C277.92 19.6051 277.475 18.2425 276.613 17.3248C275.751 16.4071 274.694 15.9344 273.498 15.9344C272.525 15.9344 271.691 16.1012 270.968 16.4349C270.245 16.7686 269.466 17.297 268.687 18.0478V36.485H262.375V11.1791H268.743V13.0701C269.522 12.3192 270.467 11.7075 271.524 11.2347C272.581 10.762 273.693 10.5395 274.778 10.5395C276.001 10.5395 277.252 10.8176 278.476 11.3737C279.727 11.9299 280.812 12.7364 281.73 13.7931C283.037 12.6251 284.372 11.7909 285.706 11.2903C287.041 10.7898 288.515 10.5395 290.128 10.5395C291.435 10.5395 292.686 10.7341 293.882 11.1235C295.078 11.5128 296.107 12.1524 296.969 13.0145C297.859 13.8765 298.554 14.9611 299.082 16.2959C299.611 17.6307 299.861 19.2158 299.861 21.079L299.917 36.485Z" fill="#255FAA"/>
<path d="M201.001 63.6819H198.276V57.1746C198.276 56.7853 198.22 56.4516 198.081 56.1457C197.97 55.8398 197.803 55.6174 197.608 55.3949C197.414 55.2002 197.164 55.0612 196.913 54.95C196.663 54.8665 196.385 54.8109 196.107 54.8109C195.69 54.8109 195.273 54.8943 194.883 55.0334C194.494 55.1724 194.105 55.3949 193.799 55.7286V63.6819H191.073V52.7809H193.799L193.826 53.5873C193.993 53.4205 194.188 53.2814 194.438 53.1424C194.689 53.0033 194.939 52.8921 195.189 52.7809C195.439 52.6974 195.717 52.614 195.968 52.5584C196.246 52.5028 196.496 52.475 196.746 52.475C197.303 52.475 197.831 52.5584 198.331 52.7253C198.832 52.8921 199.305 53.1702 199.694 53.5317C200.083 53.8932 200.389 54.366 200.64 54.95C200.89 55.5339 201.001 56.2013 201.001 57.0078V63.6819Z" fill="#F17C21"/>
<path d="M214.544 50.5006C214.294 50.3893 214.043 50.3337 213.849 50.3059C213.654 50.2781 213.432 50.2503 213.181 50.2503C212.653 50.2503 212.291 50.3615 212.069 50.6118C211.846 50.8621 211.735 51.2792 211.735 51.9188V52.7809H213.459V55.1724H211.735V63.6819H209.01V55.1724H207.675V52.7809H209.01V51.9466C209.01 50.584 209.26 49.5272 209.789 48.8042C210.317 48.0812 211.207 47.7197 212.486 47.7197C213.209 47.7197 213.904 47.8031 214.544 47.97V50.5006Z" fill="#F17C21"/>
<path d="M233.482 58.2314C233.482 59.0378 233.315 59.8165 233.037 60.5117C232.731 61.2069 232.314 61.8187 231.785 62.3193C231.257 62.8198 230.645 63.2369 229.922 63.515C229.227 63.8209 228.448 63.96 227.642 63.96C226.835 63.96 226.085 63.8209 225.389 63.515C224.694 63.2091 224.054 62.8198 223.554 62.2914C223.026 61.7631 222.608 61.1791 222.303 60.4561C221.997 59.7609 221.858 59.01 221.858 58.2036C221.858 57.4249 222.024 56.6741 222.33 55.9789C222.636 55.2836 223.053 54.6719 223.582 54.1435C224.11 53.6151 224.722 53.2258 225.417 52.9199C226.112 52.614 226.863 52.475 227.67 52.475C228.476 52.475 229.227 52.614 229.95 52.9199C230.645 53.2258 231.285 53.6151 231.813 54.1157C232.341 54.6163 232.759 55.228 233.064 55.9511C233.315 56.6463 233.482 57.4249 233.482 58.2314ZM230.756 58.2314C230.756 57.7586 230.673 57.3415 230.506 56.9244C230.339 56.535 230.117 56.1735 229.839 55.8676C229.561 55.5617 229.227 55.3393 228.838 55.1724C228.476 55.0056 228.059 54.9221 227.642 54.9221C227.225 54.9221 226.808 55.0056 226.446 55.1724C226.057 55.3393 225.751 55.5617 225.445 55.8676C225.167 56.1735 224.944 56.535 224.778 56.9244C224.611 57.3137 224.527 57.7586 224.527 58.2314C224.527 58.7041 224.611 59.1213 224.778 59.5384C224.944 59.9277 225.167 60.2892 225.445 60.5951C225.723 60.901 226.057 61.1235 226.446 61.2903C226.808 61.4572 227.225 61.5406 227.642 61.5406C228.059 61.5406 228.476 61.4572 228.838 61.2903C229.199 61.1235 229.533 60.8732 229.839 60.5951C230.117 60.2892 230.339 59.9277 230.506 59.5384C230.673 59.1213 230.756 58.6763 230.756 58.2314Z" fill="#F17C21"/>
<path d="M247.442 63.4316C247.164 63.5984 246.83 63.7375 246.468 63.8209C246.107 63.9043 245.745 63.9599 245.384 63.9599C244.744 63.9599 244.188 63.8765 243.771 63.7375C243.326 63.5706 242.992 63.3482 242.714 63.0145C242.464 62.6808 242.241 62.2636 242.13 61.7631C242.019 61.2625 241.935 60.6785 241.935 59.9833V55.2002H240.489V53.9766C241.379 53.6151 242.075 53.0589 242.631 52.3637C243.187 51.6407 243.548 50.723 243.743 49.5551H244.633V52.7531H247.386V55.2002H244.633V60.1502C244.633 60.4282 244.661 60.6507 244.744 60.8176C244.828 60.9844 244.911 61.1235 245.022 61.2347C245.133 61.3459 245.273 61.4016 245.412 61.4294C245.551 61.4572 245.717 61.485 245.884 61.485C246.107 61.485 246.357 61.4572 246.663 61.3737C246.969 61.2903 247.219 61.1791 247.442 60.9844V63.4316Z" fill="#F17C21"/>
<path d="M266.324 58.2036C266.324 58.3704 266.324 58.5651 266.296 58.7597C266.268 58.9544 266.24 59.1491 266.24 59.3437H257.508C257.62 59.6496 257.759 59.9555 257.925 60.2336C258.12 60.5117 258.343 60.762 258.593 60.9844C258.843 61.1791 259.149 61.346 259.483 61.485C259.816 61.5962 260.178 61.6797 260.595 61.6797C261.096 61.6797 261.568 61.5962 262.069 61.4294C262.57 61.2625 262.959 61.0401 263.293 60.7342L265.017 62.4583C264.266 63.0145 263.515 63.4316 262.792 63.6541C262.069 63.8765 261.29 64.0156 260.484 64.0156C259.677 64.0156 258.899 63.8487 258.176 63.5707C257.481 63.2648 256.841 62.8754 256.34 62.3471C255.84 61.8187 255.395 61.2347 255.117 60.5117C254.811 59.8165 254.672 59.0657 254.672 58.287C254.672 57.4806 254.839 56.7575 255.117 56.0623C255.423 55.3671 255.84 54.7553 256.368 54.2269C256.897 53.6986 257.508 53.3093 258.204 53.0034C258.899 52.6975 259.677 52.5584 260.456 52.5584C261.235 52.5584 261.958 52.6975 262.653 52.9755C263.348 53.2536 263.988 53.6429 264.516 54.1713C265.045 54.6719 265.489 55.2837 265.795 55.9789C266.157 56.5907 266.324 57.3693 266.324 58.2036ZM263.459 57.1468C263.237 56.4516 262.875 55.8955 262.319 55.4783C261.763 55.0612 261.151 54.8387 260.456 54.8387C259.789 54.8387 259.149 55.0612 258.621 55.4783C258.092 55.8955 257.703 56.4516 257.481 57.1468H263.459Z" fill="#F17C21"/>
<path d="M283.843 62.0411C283.287 62.6807 282.62 63.1535 281.841 63.4872C281.062 63.8209 280.228 63.9878 279.394 63.9878C278.615 63.9878 277.864 63.8487 277.141 63.5428C276.446 63.2369 275.834 62.8476 275.306 62.347C274.778 61.8465 274.388 61.2347 274.082 60.5395C273.776 59.8443 273.637 59.0656 273.637 58.2592C273.637 57.4527 273.804 56.7019 274.082 56.0067C274.388 55.3114 274.778 54.6997 275.306 54.1991C275.834 53.6985 276.418 53.2814 277.141 52.9755C277.836 52.6696 278.615 52.5306 279.394 52.5306C280.228 52.5306 281.007 52.6974 281.757 52.9755C282.508 53.2814 283.148 53.7263 283.704 54.3659L281.869 56.2291C281.591 55.8676 281.257 55.5617 280.868 55.3114C280.478 55.0612 279.978 54.9499 279.422 54.9499C279.004 54.9499 278.615 55.0334 278.254 55.2002C277.892 55.3671 277.558 55.6173 277.28 55.8954C277.002 56.2013 276.78 56.535 276.613 56.9521C276.446 57.3415 276.363 57.7864 276.363 58.2314C276.363 58.6763 276.446 59.1212 276.613 59.5105C276.78 59.8999 277.002 60.2614 277.28 60.5673C277.558 60.8732 277.892 61.0956 278.254 61.2625C278.615 61.4293 279.032 61.5128 279.449 61.5128C279.978 61.5128 280.478 61.3737 280.923 61.1234C281.368 60.8732 281.702 60.5395 281.98 60.1223L283.843 62.0411Z" fill="#F17C21"/>
<path d="M300 63.6819H297.275V57.1468C297.275 56.7575 297.219 56.4238 297.08 56.1179C296.969 55.812 296.802 55.5895 296.607 55.3671C296.413 55.1724 296.19 55.0334 295.94 54.9221C295.69 54.8387 295.412 54.7831 295.133 54.7831C294.716 54.7831 294.327 54.8387 293.938 54.9777C293.548 55.1168 293.187 55.2836 292.853 55.5061V63.6541H290.128V47.9978H292.853L292.881 53.3648C293.27 53.0589 293.743 52.8087 294.271 52.6696C294.8 52.5306 295.3 52.4472 295.801 52.4472C296.357 52.4472 296.913 52.5306 297.414 52.7252C297.914 52.9199 298.359 53.198 298.749 53.5595C299.138 53.921 299.444 54.3938 299.666 54.9499C299.889 55.5061 300 56.1735 300 56.9243V63.6819Z" fill="#F17C21"/>
<path d="M170.745 41.574H82.0078V42.7976H170.745V41.574Z" fill="#255FAA"/>
<path d="M299.722 41.7408H215.962V42.8254H299.722V41.7408Z" fill="#255FAA"/>
<path d="M82.7864 66.574H86.5684C88.4038 66.574 89.7664 67.0745 90.6841 68.1035C91.5184 69.0489 91.9355 70.3838 91.9355 72.1079C91.9355 74.0823 91.3515 75.584 90.1835 76.5573C89.2102 77.3915 87.931 77.8087 86.3181 77.8087H82.8142V66.574H82.7864ZM84.733 68.0756V76.307H86.2625C87.4861 76.307 88.4038 75.9177 88.9878 75.1668C89.544 74.4716 89.822 73.4427 89.822 72.1079C89.822 69.4104 88.6541 68.0478 86.346 68.0478L84.733 68.0756Z" fill="#255FAA"/>
<path d="M97.8865 66.574V68.4372H95.9121V66.574H97.8865ZM97.8309 69.8832V77.8365H95.9955V69.8832H97.8309Z" fill="#255FAA"/>
<path d="M109.205 68.7708L109.093 70.2447C108.676 70.2447 108.37 70.2725 108.176 70.3559C108.009 70.4116 107.842 70.5228 107.675 70.6618C108.12 71.1068 108.315 71.6351 108.315 72.2469C108.315 73.109 107.981 73.7764 107.314 74.277C106.757 74.6941 106.034 74.8888 105.172 74.8888C104.811 74.8888 104.449 74.8331 104.143 74.7497C103.754 74.9444 103.559 75.1668 103.559 75.4449C103.559 75.6396 103.643 75.7786 103.81 75.8343C103.977 75.9177 104.255 75.9733 104.672 76.0011L106.479 76.1401C107.536 76.2514 108.287 76.5017 108.732 76.891C109.066 77.1969 109.232 77.6418 109.232 78.2258C109.232 79.0044 108.843 79.5884 108.064 80.0334C107.341 80.4227 106.396 80.6452 105.228 80.6452C104.032 80.6452 103.087 80.4505 102.447 80.0334C101.919 79.6997 101.641 79.2547 101.641 78.6985C101.641 78.0311 102.141 77.5028 103.115 77.1413C102.364 76.9744 102.002 76.5851 102.002 76.0011C102.002 75.4171 102.419 74.861 103.226 74.3604C102.475 73.8877 102.086 73.1646 102.086 72.2469C102.086 71.4127 102.419 70.7731 103.087 70.3003C103.643 69.8832 104.366 69.6885 105.228 69.6885C105.895 69.6885 106.452 69.7998 106.924 70.0779C107.202 69.5773 107.536 69.2158 107.925 69.0211C108.204 68.8543 108.648 68.7708 109.205 68.7708ZM104.199 77.3637C103.476 77.5862 103.142 77.9477 103.142 78.4483C103.142 78.8098 103.365 79.0879 103.81 79.2825C104.199 79.4494 104.7 79.5328 105.311 79.5328C106.118 79.5328 106.702 79.4216 107.119 79.1713C107.453 78.9766 107.62 78.7542 107.62 78.4761C107.62 78.1702 107.508 77.9477 107.286 77.8365C107.063 77.7252 106.674 77.614 106.146 77.5584L104.199 77.3637ZM105.172 70.7731C104.727 70.7731 104.366 70.9121 104.088 71.218C103.838 71.4683 103.726 71.8298 103.726 72.2469C103.726 72.7753 103.893 73.1924 104.199 73.4705C104.449 73.693 104.783 73.8042 105.172 73.8042C105.645 73.8042 106.007 73.6652 106.257 73.3593C106.507 73.0812 106.618 72.7197 106.618 72.2469C106.618 71.7742 106.452 71.3849 106.146 71.1068C105.895 70.8843 105.59 70.7731 105.172 70.7731Z" fill="#255FAA"/>
<path d="M114.822 66.574V68.4372H112.848V66.574H114.822ZM114.766 69.8832V77.8365H112.931V69.8832H114.766Z" fill="#255FAA"/>
<path d="M121.44 67.2692V69.8832H123.22V71.218H121.44V75.584C121.44 76.3626 121.774 76.7241 122.414 76.7241C122.775 76.7241 123.081 76.6963 123.331 76.6407L123.248 77.9477C122.859 78.0033 122.358 78.0312 121.83 78.0312C121.023 78.0312 120.439 77.8365 120.078 77.4472C119.772 77.1135 119.605 76.5851 119.605 75.9177V71.218H118.409V69.8832H119.605V67.6863L121.44 67.2692Z" fill="#255FAA"/>
<path d="M126.724 71.8854C127.141 70.4116 128.226 69.6885 130.033 69.6885C132.091 69.6885 133.12 70.5784 133.12 72.3304V75.5005C133.12 76.2792 133.176 77.0578 133.231 77.8643H131.563C131.507 77.5584 131.479 77.2247 131.424 76.8076C130.868 77.6418 130.033 78.0311 128.921 78.0311C128.142 78.0311 127.503 77.7809 127.058 77.3081C126.669 76.891 126.474 76.3348 126.474 75.6674C126.474 74.2492 127.336 73.3593 129.088 73.0256C129.727 72.9143 130.478 72.8309 131.368 72.8031V72.3582C131.368 71.8298 131.257 71.4405 131.007 71.2458C130.784 71.0512 130.451 70.9677 130.006 70.9677C129.588 70.9677 129.255 71.1068 128.977 71.3571C128.726 71.6073 128.56 71.941 128.476 72.3582L126.724 71.8854ZM131.34 73.9433C130.729 73.9711 130.117 74.0267 129.505 74.1657C128.643 74.3604 128.198 74.8331 128.198 75.5284C128.198 76.3348 128.615 76.7241 129.477 76.7241C130.256 76.7241 130.868 76.2792 131.34 75.4171V73.9433Z" fill="#255FAA"/>
<path d="M139.405 66.3793V77.8365H137.57V66.3793H139.405Z" fill="#255FAA"/>
<path d="M145.829 66.574V68.4372H143.854V66.574H145.829ZM145.745 69.8832V77.8365H143.91V69.8832H145.745Z" fill="#255FAA"/>
<path d="M156.007 71.7464L154.283 72.2469C154.088 71.3849 153.615 70.9677 152.864 70.9677C152.447 70.9677 152.141 71.0512 151.919 71.2458C151.724 71.4127 151.613 71.5795 151.613 71.8298C151.613 72.1635 151.724 72.4138 151.947 72.5806C152.141 72.7475 152.503 72.8865 153.031 73.0256L153.699 73.1924C154.672 73.4427 155.339 73.7764 155.673 74.1657C156.007 74.5272 156.146 75 156.146 75.6118C156.146 76.4182 155.84 77.03 155.228 77.4471C154.672 77.8643 153.893 78.0589 152.92 78.0589C151.196 78.0589 150.083 77.3915 149.583 76.0845L151.279 75.5005C151.529 76.3904 152.086 76.8354 152.948 76.8354C153.921 76.8354 154.394 76.5017 154.394 75.8064C154.394 75.4727 154.283 75.2225 154.06 75.0556C153.865 74.9444 153.476 74.7775 152.864 74.6107L152.197 74.416C151.279 74.1657 150.64 73.8598 150.306 73.4427C150 73.0812 149.861 72.6084 149.861 71.9688C149.861 71.2458 150.167 70.6896 150.723 70.2725C151.251 69.8832 151.974 69.6885 152.837 69.6885C154.505 69.6885 155.562 70.3837 156.007 71.7464Z" fill="#255FAA"/>
<path d="M166.852 74.2491H161.457C161.457 75.0834 161.652 75.723 162.041 76.168C162.375 76.5573 162.848 76.7797 163.459 76.7797C164.321 76.7797 164.878 76.2792 165.128 75.2781L166.796 75.7508C166.296 77.2803 165.184 78.0589 163.432 78.0589C162.152 78.0589 161.207 77.6418 160.54 76.8354C159.956 76.1123 159.677 75.139 159.677 73.9433C159.677 72.5528 160.067 71.4961 160.818 70.7174C161.457 70.05 162.291 69.7163 163.293 69.7163C164.405 69.7163 165.295 70.1335 165.962 70.9399C166.574 71.6908 166.852 72.6641 166.852 73.8876V74.2491ZM165.072 73.0534C164.989 71.6629 164.405 70.9677 163.32 70.9677C162.736 70.9677 162.291 71.1902 161.958 71.6073C161.68 71.9688 161.513 72.4416 161.485 73.0534H165.072Z" fill="#255FAA"/>
<path d="M183.454 69.8832L180.645 78.1424C180.311 79.1157 179.867 79.7831 179.31 80.1724C178.838 80.5061 178.226 80.673 177.447 80.673C177.113 80.673 176.78 80.6451 176.446 80.5895L176.363 79.1991C176.724 79.2547 177.058 79.3103 177.392 79.3103C178.115 79.3103 178.615 78.8932 178.893 78.0867L179.004 77.753L176.307 69.9388H178.226L179.171 73.2758C179.255 73.5539 179.477 74.416 179.839 75.8899H179.978C180.033 75.6674 180.172 75.1946 180.339 74.4994C180.478 73.9989 180.59 73.5817 180.673 73.248L181.591 69.9388L183.454 69.8832Z" fill="#255FAA"/>
<path d="M190.239 69.6885C191.407 69.6885 192.325 70.1057 192.964 70.9399C193.548 71.6908 193.826 72.6362 193.826 73.832C193.826 75.1946 193.465 76.2792 192.714 77.03C192.075 77.6974 191.24 78.0033 190.211 78.0033C189.043 78.0033 188.126 77.5862 187.486 76.7519C186.902 76.0011 186.624 75.0556 186.624 73.8598C186.624 72.4972 186.986 71.4127 187.736 70.6618C188.404 70.0222 189.238 69.6885 190.239 69.6885ZM190.239 71.0234C189.071 71.0234 188.487 71.9688 188.487 73.8598C188.487 75.7786 189.071 76.7241 190.211 76.7241C191.379 76.7241 191.963 75.7786 191.963 73.8598C191.963 71.9688 191.407 71.0234 190.239 71.0234Z" fill="#255FAA"/>
<path d="M204.505 69.8832V77.8365H202.725V76.4739C202.419 77.0022 202.03 77.3916 201.529 77.6696C201.085 77.9199 200.64 78.0312 200.139 78.0312C199.416 78.0312 198.832 77.8087 198.415 77.3637C198.026 76.9466 197.831 76.3905 197.831 75.6674V69.8554H199.694V75.1391C199.694 76.0289 200.056 76.4461 200.806 76.4461C201.168 76.4461 201.529 76.307 201.891 76.0011C202.197 75.7508 202.447 75.4449 202.642 75.0834V69.8554L204.505 69.8832Z" fill="#255FAA"/>
<path d="M213.209 69.6885L213.098 71.4127C212.069 71.4127 211.318 72.0801 210.845 73.4427V77.8365H209.038V69.8832H210.762V71.8298C211.263 70.4115 212.097 69.6885 213.209 69.6885Z" fill="#255FAA"/>
<path d="M225.028 66.3793V71.0234C225.306 70.5784 225.64 70.2447 226.085 69.9944C226.446 69.7998 226.835 69.6885 227.225 69.6885C228.198 69.6885 228.949 70.0778 229.477 70.8565C229.978 71.5795 230.228 72.5528 230.228 73.8042C230.228 75.1947 229.867 76.307 229.171 77.0856C228.615 77.7252 227.92 78.0311 227.113 78.0311C226.085 78.0311 225.362 77.5584 224.889 76.5851L224.527 77.8087H223.22V66.3515H225.028V66.3793ZM225.028 72.4972V75.3059C225.417 76.1958 225.945 76.6407 226.641 76.6407C227.197 76.6407 227.614 76.3904 227.92 75.8621C228.226 75.3893 228.365 74.6941 228.365 73.832C228.365 72.8865 228.198 72.1635 227.836 71.6908C227.558 71.3014 227.197 71.1346 226.752 71.1346C226.001 71.1346 225.445 71.6073 225.028 72.4972Z" fill="#255FAA"/>
<path d="M240.907 69.8832V77.8365H239.127V76.4739C238.821 77.0022 238.432 77.3916 237.931 77.6696C237.486 77.9199 237.041 78.0312 236.541 78.0312C235.818 78.0312 235.234 77.8087 234.816 77.3637C234.427 76.9466 234.232 76.3905 234.232 75.6674V69.8554H236.096V75.1391C236.096 76.0289 236.457 76.4461 237.208 76.4461C237.57 76.4461 237.931 76.307 238.293 76.0011C238.598 75.7508 238.849 75.4449 239.043 75.0834V69.8554L240.907 69.8832Z" fill="#255FAA"/>
<path d="M251.168 71.7464L249.444 72.2469C249.249 71.3849 248.776 70.9677 248.026 70.9677C247.608 70.9677 247.303 71.0512 247.08 71.2458C246.885 71.4127 246.774 71.5795 246.774 71.8298C246.774 72.1635 246.885 72.4138 247.108 72.5806C247.303 72.7475 247.664 72.8865 248.192 73.0256L248.86 73.1924C249.833 73.4427 250.473 73.7764 250.834 74.1657C251.168 74.5272 251.307 75 251.307 75.6118C251.307 76.4182 251.001 77.03 250.389 77.4471C249.833 77.8643 249.054 78.0589 248.081 78.0589C246.357 78.0589 245.245 77.3915 244.744 76.0845L246.44 75.5005C246.691 76.3904 247.247 76.8354 248.109 76.8354C249.082 76.8354 249.555 76.5017 249.555 75.8064C249.555 75.4727 249.444 75.2225 249.221 75.0556C249.027 74.9444 248.637 74.7775 248.026 74.6107L247.358 74.416C246.44 74.1657 245.801 73.8598 245.467 73.4427C245.161 73.0812 245.022 72.6084 245.022 71.9688C245.022 71.2458 245.328 70.6896 245.884 70.2725C246.413 69.8832 247.108 69.6885 247.998 69.6885C249.666 69.6885 250.723 70.3837 251.168 71.7464Z" fill="#255FAA"/>
<path d="M257.23 66.574V68.4372H255.256V66.574H257.23ZM257.147 69.8832V77.8365H255.311V69.8832H257.147Z" fill="#255FAA"/>
<path d="M263.432 69.8832V71.2736C263.793 70.7453 264.21 70.3559 264.683 70.0778C265.128 69.8276 265.573 69.7163 266.046 69.7163C266.769 69.7163 267.353 69.9388 267.742 70.4116C268.131 70.8287 268.298 71.3849 268.298 72.1079V77.8643H266.435V72.6363C266.435 71.7464 266.073 71.3014 265.323 71.3014C264.989 71.3014 264.627 71.4405 264.266 71.7186C263.96 71.9688 263.682 72.2747 263.459 72.6641V77.8921H261.624V69.9388H263.432V69.8832Z" fill="#255FAA"/>
<path d="M279.505 74.2491H274.11C274.11 75.0834 274.305 75.723 274.694 76.168C275.028 76.5573 275.501 76.7797 276.112 76.7797C276.974 76.7797 277.531 76.2792 277.781 75.2781L279.449 75.7508C278.949 77.2803 277.837 78.0589 276.085 78.0589C274.805 78.0589 273.86 77.6418 273.192 76.8354C272.608 76.1123 272.33 75.139 272.33 73.9433C272.33 72.5528 272.72 71.4961 273.471 70.7174C274.11 70.05 274.944 69.7163 275.946 69.7163C277.058 69.7163 277.948 70.1335 278.615 70.9399C279.227 71.6908 279.505 72.6641 279.505 73.8876V74.2491ZM277.725 73.0534C277.642 71.6629 277.058 70.9677 275.973 70.9677C275.389 70.9677 274.944 71.1902 274.611 71.6073C274.333 71.9688 274.166 72.4416 274.138 73.0534H277.725Z" fill="#255FAA"/>
<path d="M289.266 71.7464L287.542 72.2469C287.347 71.3849 286.874 70.9677 286.123 70.9677C285.706 70.9677 285.4 71.0512 285.178 71.2458C284.983 71.4127 284.872 71.5795 284.872 71.8298C284.872 72.1635 284.983 72.4138 285.178 72.5806C285.373 72.7475 285.734 72.8865 286.263 73.0256L286.93 73.1924C287.903 73.4427 288.571 73.7764 288.904 74.1657C289.238 74.5272 289.377 75 289.377 75.6118C289.377 76.4182 289.071 77.03 288.459 77.4471C287.903 77.8643 287.125 78.0589 286.151 78.0589C284.427 78.0589 283.315 77.3915 282.814 76.0845L284.511 75.5005C284.761 76.3904 285.317 76.8354 286.179 76.8354C287.152 76.8354 287.625 76.5017 287.625 75.8064C287.625 75.4727 287.514 75.2225 287.291 75.0556C287.097 74.9444 286.707 74.7775 286.096 74.6107L285.428 74.416C284.511 74.1657 283.871 73.8598 283.537 73.4427C283.231 73.0812 283.092 72.6084 283.092 71.9688C283.092 71.2458 283.398 70.6896 283.954 70.2725C284.483 69.8832 285.206 69.6885 286.068 69.6885C287.764 69.6885 288.821 70.3837 289.266 71.7464Z" fill="#255FAA"/>
<path d="M299.194 71.7464L297.469 72.2469C297.275 71.3849 296.802 70.9677 296.051 70.9677C295.634 70.9677 295.328 71.0512 295.106 71.2458C294.911 71.4127 294.8 71.5795 294.8 71.8298C294.8 72.1635 294.911 72.4138 295.133 72.5806C295.328 72.7475 295.69 72.8865 296.218 73.0256L296.885 73.1924C297.859 73.4427 298.526 73.7764 298.86 74.1657C299.194 74.5272 299.333 75 299.333 75.6118C299.333 76.4182 299.027 77.03 298.415 77.4471C297.859 77.8643 297.08 78.0589 296.107 78.0589C294.383 78.0589 293.27 77.3915 292.77 76.0845L294.466 75.5005C294.716 76.3904 295.273 76.8354 296.135 76.8354C297.108 76.8354 297.581 76.5017 297.581 75.8064C297.581 75.4727 297.469 75.2225 297.247 75.0556C297.052 74.9444 296.663 74.7775 296.051 74.6107L295.384 74.416C294.466 74.1657 293.826 73.8598 293.493 73.4427C293.187 73.0812 293.048 72.6084 293.048 71.9688C293.048 71.2458 293.354 70.6896 293.91 70.2725C294.438 69.8832 295.161 69.6885 296.023 69.6885C297.692 69.6885 298.721 70.3837 299.194 71.7464Z" fill="#255FAA"/>
</svg>
